<?xml version="1.0" standalone="no"?>
<!DOCTYPE svg PUBLIC "-//W3C//DTD SVG 20010904//EN"
 "http://www.w3.org/TR/2001/REC-SVG-20010904/DTD/svg10.dtd">
<svg version="1.0" xmlns="http://www.w3.org/2000/svg"
 width="209.000000pt" height="209.000000pt" viewBox="0 0 209.000000 209.000000"
 preserveAspectRatio="xMidYMid meet">
<metadata>
Created by potrace 1.11, written by Peter Selinger 2001-2013
</metadata>
<g transform="translate(0.000000,209.000000) scale(0.100000,-0.100000)"
fill="#000000" stroke="none">
<path d="M345 2080 c-53 -8 -132 -40 -167 -68 -102 -80 -153 -166 -170 -284
-5 -40 -8 -350 -6 -736 2 -539 6 -673 17 -697 7 -16 19 -41 25 -55 39 -87 114
-157 223 -208 l58 -27 720 0 720 0 77 37 c98 48 158 108 206 206 l37 77 0 720
0 720 -27 58 c-51 109 -121 184 -208 223 -14 6 -38 18 -55 25 -24 11 -158 14
-715 16 -377 0 -707 -2 -735 -7z m1069 -550 c17 -6 33 -24 42 -46 15 -36 14
-41 -87 -377 -68 -225 -111 -350 -125 -366 l-22 -26 -323 -5 c-221 -3 -323 -8
-326 -16 -2 -6 5 -22 16 -35 l19 -24 330 -3 c304 -3 330 -1 350 15 15 13 47
106 117 336 53 175 97 327 98 337 1 11 5 20 9 20 14 0 47 -39 53 -63 6 -24
-162 -600 -192 -660 -8 -15 -28 -37 -46 -47 -30 -19 -52 -20 -370 -20 -317 0
-340 1 -377 20 -65 33 -85 72 -85 165 0 73 3 87 38 153 20 40 37 85 37 100 0
15 14 54 30 86 17 34 30 75 30 96 0 24 7 43 20 55 24 22 50 88 53 137 2 21 10
45 19 55 9 10 19 28 23 41 3 12 18 35 31 52 l25 29 293 1 c176 0 304 -4 320
-10z"/>
<path d="M886 1348 c-9 -12 -16 -30 -16 -40 0 -17 15 -18 205 -18 l206 0 14
32 c7 18 11 36 9 40 -3 5 -95 8 -204 8 -194 0 -199 -1 -214 -22z"/>
<path d="M825 1168 c-10 -25 -10 -35 -2 -40 7 -4 96 -8 198 -8 200 0 213 3
225 53 l6 27 -206 0 -207 0 -14 -32z"/>
</g>
</svg>
